<?xml version="1.0" encoding="UTF-8" standalone="no"?>
<!-- Created with Inkscape (http://www.inkscape.org/) -->

<svg
   xmlns:dc="http://purl.org/dc/elements/1.1/"
   xmlns:cc="http://creativecommons.org/ns#"
   xmlns:rdf="http://www.w3.org/1999/02/22-rdf-syntax-ns#"
   xmlns:svg="http://www.w3.org/2000/svg"
   xmlns="http://www.w3.org/2000/svg"
   xmlns:sodipodi="http://sodipodi.sourceforge.net/DTD/sodipodi-0.dtd"
   xmlns:inkscape="http://www.inkscape.org/namespaces/inkscape"
   version="1.1"
   id="svg3713"
   xml:space="preserve"
   width="2105.6658"
   height="1065.6658"
   viewBox="0 0 2105.6657 1065.6657"
   sodipodi:docname="cloud.svg"
   inkscape:version="0.92.3 (2405546, 2018-03-11)"><metadata
     id="metadata3719"><rdf:RDF><cc:Work
         rdf:about=""><dc:format>image/svg+xml</dc:format><dc:type
           rdf:resource="http://purl.org/dc/dcmitype/StillImage" /><dc:title></dc:title></cc:Work></rdf:RDF></metadata><defs
     id="defs3717"><clipPath
       clipPathUnits="userSpaceOnUse"
       id="clipPath3729"><path
         d="M 0,800 H 800 V 0 H 0 Z"
         id="path3727"
         inkscape:connector-curvature="0" /></clipPath><clipPath
       clipPathUnits="userSpaceOnUse"
       id="clipPath3737"><path
         d="M 3.43311,800 H 796.29 V 0 H 3.43311 Z"
         id="path3735"
         inkscape:connector-curvature="0" /></clipPath><clipPath
       clipPathUnits="userSpaceOnUse"
       id="clipPath3751"><path
         d="M 0,800 H 800 V 0 H 0 Z"
         id="path3749"
         inkscape:connector-curvature="0" /></clipPath><clipPath
       clipPathUnits="userSpaceOnUse"
       id="clipPath3799"><path
         d="m 96.2681,110.339 h 4.3459 v -4.347 h -4.3459 z"
         id="path3797"
         inkscape:connector-curvature="0" /></clipPath><clipPath
       clipPathUnits="userSpaceOnUse"
       id="clipPath4087"><path
         d="m 79.8491,104.543 h 4.3457 v -4.347 h -4.3457 z"
         id="path4085"
         inkscape:connector-curvature="0" /></clipPath><clipPath
       clipPathUnits="userSpaceOnUse"
       id="clipPath4103"><path
         d="m 106.892,101.646 h 4.346 v -4.3472 h -4.346 z"
         id="path4101"
         inkscape:connector-curvature="0" /></clipPath><clipPath
       clipPathUnits="userSpaceOnUse"
       id="clipPath4119"><path
         d="m 541.515,108.165 h 4.346 v -4.347 h -4.346 z"
         id="path4117"
         inkscape:connector-curvature="0" /></clipPath><clipPath
       clipPathUnits="userSpaceOnUse"
       id="clipPath4135"><path
         d="m 558.176,112.27 h 4.345 v -4.347 h -4.345 z"
         id="path4133"
         inkscape:connector-curvature="0" /></clipPath><clipPath
       clipPathUnits="userSpaceOnUse"
       id="clipPath4151"><path
         d="m 718.504,100.68 h 4.347 v -4.347 h -4.347 z"
         id="path4149"
         inkscape:connector-curvature="0" /></clipPath><clipPath
       clipPathUnits="userSpaceOnUse"
       id="clipPath4167"><path
         d="m 700.153,101.646 h 4.346 v -4.3472 h -4.346 z"
         id="path4165"
         inkscape:connector-curvature="0" /></clipPath><clipPath
       clipPathUnits="userSpaceOnUse"
       id="clipPath4183"><path
         d="m 708.845,112.27 h 4.346 v -4.347 h -4.346 z"
         id="path4181"
         inkscape:connector-curvature="0" /></clipPath><clipPath
       clipPathUnits="userSpaceOnUse"
       id="clipPath4199"><path
         d="m 336.759,100.92 h 4.346 v -4.3468 h -4.346 z"
         id="path4197"
         inkscape:connector-curvature="0" /></clipPath><clipPath
       clipPathUnits="userSpaceOnUse"
       id="clipPath4215"><path
         d="m 263.356,112.27 h 4.347 v -4.347 h -4.347 z"
         id="path4213"
         inkscape:connector-curvature="0" /></clipPath><clipPath
       clipPathUnits="userSpaceOnUse"
       id="clipPath4231"><path
         d="m 211.442,104.543 h 4.347 v -4.347 h -4.347 z"
         id="path4229"
         inkscape:connector-curvature="0" /></clipPath><clipPath
       clipPathUnits="userSpaceOnUse"
       id="clipPath4247"><path
         d="m 463.283,106.475 h 4.347 v -4.346 h -4.347 z"
         id="path4245"
         inkscape:connector-curvature="0" /></clipPath><clipPath
       clipPathUnits="userSpaceOnUse"
       id="clipPath4263"><path
         d="m 323.479,105.509 h 4.346 v -4.347 h -4.346 z"
         id="path4261"
         inkscape:connector-curvature="0" /></clipPath><clipPath
       clipPathUnits="userSpaceOnUse"
       id="clipPath4279"><path
         d="m 315.751,377.632 c -1.26,0 -8.023,-10.896 -8.023,-12.157 v 0 L 299.103,312.9 c 0,-1.26 1.022,-2.281 2.281,-2.281 v 0 h 110.249 c 1.26,0 2.281,1.021 2.281,2.281 v 0 l -7.677,48.953 c 0,1.259 -9.967,16.66 -11.227,16.66 v 0 z"
         id="path4277"
         inkscape:connector-curvature="0" /></clipPath><clipPath
       clipPathUnits="userSpaceOnUse"
       id="clipPath4303"><path
         d="M 3.434,0 H 796.29 V 800 H 3.434 Z"
         id="path4301"
         inkscape:connector-curvature="0" /></clipPath><clipPath
       clipPathUnits="userSpaceOnUse"
       id="clipPath4347"><path
         d="M 0,800 H 800 V 0 H 0 Z"
         id="path4345"
         inkscape:connector-curvature="0" /></clipPath><clipPath
       clipPathUnits="userSpaceOnUse"
       id="clipPath4279-9"><path
         d="m 315.751,377.632 c -1.26,0 -8.023,-10.896 -8.023,-12.157 v 0 L 299.103,312.9 c 0,-1.26 1.022,-2.281 2.281,-2.281 v 0 h 110.249 c 1.26,0 2.281,1.021 2.281,2.281 v 0 l -7.677,48.953 c 0,1.259 -9.967,16.66 -11.227,16.66 v 0 z"
         id="path4277-6"
         inkscape:connector-curvature="0" /></clipPath><clipPath
       clipPathUnits="userSpaceOnUse"
       id="clipPath4263-8"><path
         d="m 323.479,105.509 h 4.346 v -4.347 h -4.346 z"
         id="path4261-9"
         inkscape:connector-curvature="0" /></clipPath><clipPath
       clipPathUnits="userSpaceOnUse"
       id="clipPath4247-9"><path
         d="m 463.283,106.475 h 4.347 v -4.346 h -4.347 z"
         id="path4245-0"
         inkscape:connector-curvature="0" /></clipPath><clipPath
       clipPathUnits="userSpaceOnUse"
       id="clipPath4231-0"><path
         d="m 211.442,104.543 h 4.347 v -4.347 h -4.347 z"
         id="path4229-0"
         inkscape:connector-curvature="0" /></clipPath><clipPath
       clipPathUnits="userSpaceOnUse"
       id="clipPath4215-0"><path
         d="m 263.356,112.27 h 4.347 v -4.347 h -4.347 z"
         id="path4213-5"
         inkscape:connector-curvature="0" /></clipPath><clipPath
       clipPathUnits="userSpaceOnUse"
       id="clipPath4199-1"><path
         d="m 336.759,100.92 h 4.346 v -4.3468 h -4.346 z"
         id="path4197-5"
         inkscape:connector-curvature="0" /></clipPath><clipPath
       clipPathUnits="userSpaceOnUse"
       id="clipPath4183-2"><path
         d="m 708.845,112.27 h 4.346 v -4.347 h -4.346 z"
         id="path4181-0"
         inkscape:connector-curvature="0" /></clipPath><clipPath
       clipPathUnits="userSpaceOnUse"
       id="clipPath4167-9"><path
         d="m 700.153,101.646 h 4.346 v -4.3472 h -4.346 z"
         id="path4165-2"
         inkscape:connector-curvature="0" /></clipPath><clipPath
       clipPathUnits="userSpaceOnUse"
       id="clipPath4151-0"><path
         d="m 718.504,100.68 h 4.347 v -4.347 h -4.347 z"
         id="path4149-3"
         inkscape:connector-curvature="0" /></clipPath><clipPath
       clipPathUnits="userSpaceOnUse"
       id="clipPath4135-0"><path
         d="m 558.176,112.27 h 4.345 v -4.347 h -4.345 z"
         id="path4133-1"
         inkscape:connector-curvature="0" /></clipPath><clipPath
       clipPathUnits="userSpaceOnUse"
       id="clipPath4119-1"><path
         d="m 541.515,108.165 h 4.346 v -4.347 h -4.346 z"
         id="path4117-1"
         inkscape:connector-curvature="0" /></clipPath><clipPath
       clipPathUnits="userSpaceOnUse"
       id="clipPath4103-5"><path
         d="m 106.892,101.646 h 4.346 v -4.3472 h -4.346 z"
         id="path4101-0"
         inkscape:connector-curvature="0" /></clipPath><clipPath
       clipPathUnits="userSpaceOnUse"
       id="clipPath4087-7"><path
         d="m 79.8491,104.543 h 4.3457 v -4.347 h -4.3457 z"
         id="path4085-8"
         inkscape:connector-curvature="0" /></clipPath><clipPath
       clipPathUnits="userSpaceOnUse"
       id="clipPath3799-1"><path
         d="m 96.2681,110.339 h 4.3459 v -4.347 h -4.3459 z"
         id="path3797-8"
         inkscape:connector-curvature="0" /></clipPath><clipPath
       clipPathUnits="userSpaceOnUse"
       id="clipPath4303-1"><path
         d="M 3.434,0 H 796.29 V 800 H 3.434 Z"
         id="path4301-7"
         inkscape:connector-curvature="0" /></clipPath></defs><sodipodi:namedview
     pagecolor="#ffffff"
     bordercolor="#666666"
     borderopacity="1"
     objecttolerance="10"
     gridtolerance="10"
     guidetolerance="10"
     inkscape:pageopacity="0"
     inkscape:pageshadow="2"
     inkscape:window-width="1920"
     inkscape:window-height="986"
     id="namedview3715"
     showgrid="false"
     inkscape:zoom="0.50580228"
     inkscape:cx="871.42624"
     inkscape:cy="639.76012"
     inkscape:window-x="-11"
     inkscape:window-y="-11"
     inkscape:window-maximized="1"
     inkscape:current-layer="g4297" /><g
     id="g3721"
     inkscape:groupmode="layer"
     inkscape:label="64194-OAXUIV-513"
     transform="matrix(1.3333333,0,0,-1.3333333,0,1065.6657)"><g
       id="g4297"
       transform="translate(798.23464,-141.5586)"
       style="fill:#63d7df;fill-opacity:1"><g
         style="fill:#63d7df;fill-opacity:1"
         transform="translate(656.91807,826.51074)"
         id="g4305"><path
           inkscape:connector-curvature="0"
           id="path4307"
           style="fill:#63d7df;fill-opacity:1;fill-rule:nonzero;stroke:none"
           d="m 0,0 h -416.27 v 0.006 h -60.34 c 0,0 -12.179,0.001 -13.46,-13.461 -1.282,-13.46 15.384,-11.537 15.384,-11.537 h 169.854 c 0,0 14.422,1.282 14.422,-14.422 0,-15.703 -19.549,-12.499 -19.549,-12.499 h -80.762 c 0,0 -10.896,-1.281 -10.896,-13.46 0,-12.178 20.512,-11.536 20.512,-11.536 h 149.701 v -0.006 h 205.136 c 0,0 12.178,-0.002 13.461,13.46 1.28,13.46 -15.384,11.535 -15.384,11.535 h -48.084 c 0,0 -14.42,-1.28 -14.42,14.424 0,15.702 19.55,12.498 19.55,12.498 h 80.76 c 0,0 10.897,1.282 10.897,13.46 C 20.512,0.641 0,0 0,0" /></g></g></g></svg>