<?xml version="1.0" encoding="UTF-8" standalone="no"?>
<!-- Generator: Adobe Illustrator 19.0.0, SVG Export Plug-In . SVG Version: 6.00 Build 0)  -->

<svg
   xmlns:dc="http://purl.org/dc/elements/1.1/"
   xmlns:cc="http://creativecommons.org/ns#"
   xmlns:rdf="http://www.w3.org/1999/02/22-rdf-syntax-ns#"
   xmlns:svg="http://www.w3.org/2000/svg"
   xmlns="http://www.w3.org/2000/svg"
   xmlns:sodipodi="http://sodipodi.sourceforge.net/DTD/sodipodi-0.dtd"
   xmlns:inkscape="http://www.inkscape.org/namespaces/inkscape"
   version="1.1"
   id="Capa_1"
   x="0px"
   y="0px"
   viewBox="0 0 58 58"
   style="enable-background:new 0 0 58 58;"
   xml:space="preserve"
   sodipodi:docname="keytaken.svg"
   inkscape:version="0.92.3 (2405546, 2018-03-11)"><metadata
   id="metadata911"><rdf:RDF><cc:Work
       rdf:about=""><dc:format>image/svg+xml</dc:format><dc:type
         rdf:resource="http://purl.org/dc/dcmitype/StillImage" /><dc:title></dc:title></cc:Work></rdf:RDF></metadata><defs
   id="defs909" /><sodipodi:namedview
   pagecolor="#ffffff"
   bordercolor="#666666"
   borderopacity="1"
   objecttolerance="10"
   gridtolerance="10"
   guidetolerance="10"
   inkscape:pageopacity="0"
   inkscape:pageshadow="2"
   inkscape:window-width="1920"
   inkscape:window-height="986"
   id="namedview907"
   showgrid="false"
   inkscape:zoom="13.155172"
   inkscape:cx="29"
   inkscape:cy="29"
   inkscape:window-x="-11"
   inkscape:window-y="-11"
   inkscape:window-maximized="1"
   inkscape:current-layer="Capa_1" />
<path
   style="fill:#4e4e4e;fill-opacity:1"
   d="M41,0c-9.374,0-17,7.626-17,17c0,3.195,0.902,6.175,2.441,8.731L0.586,51.586  c-0.781,0.781-0.781,2.047,0,2.828C0.977,54.805,1.488,55,2,55s1.023-0.195,1.414-0.586L7,50.828l6.586,6.586  C13.977,57.805,14.488,58,15,58s1.023-0.195,1.414-0.586c0.781-0.781,0.781-2.047,0-2.828L9.828,48L12,45.828l4.586,4.586  C16.977,50.805,17.488,51,18,51s1.023-0.195,1.414-0.586c0.781-0.781,0.781-2.047,0-2.828L14.828,43L17,40.828l6.586,6.586  C23.977,47.805,24.488,48,25,48s1.023-0.195,1.414-0.586c0.781-0.781,0.781-2.047,0-2.828L19.828,38l9.075-9.075  C31.988,32.054,36.269,34,41,34c9.374,0,17-7.626,17-17S50.374,0,41,0z M41,30c-7.168,0-13-5.832-13-13S33.832,4,41,4  s13,5.832,13,13S48.168,30,41,30z"
   id="path874" />
<g
   id="g876">
</g>
<g
   id="g878">
</g>
<g
   id="g880">
</g>
<g
   id="g882">
</g>
<g
   id="g884">
</g>
<g
   id="g886">
</g>
<g
   id="g888">
</g>
<g
   id="g890">
</g>
<g
   id="g892">
</g>
<g
   id="g894">
</g>
<g
   id="g896">
</g>
<g
   id="g898">
</g>
<g
   id="g900">
</g>
<g
   id="g902">
</g>
<g
   id="g904">
</g>
</svg>